<svg xmlns="http://www.w3.org/2000/svg" xml:space="preserve" id="Layer_1" x="0" y="0" style="enable-background:new 0 0 64 64" version="1.1" viewBox="0 0 64 64">
  <style>
    .st2{opacity:.2;fill:#231f20}.st5{fill:#c75c5c}
  </style>
  <circle cx="32" cy="32" r="32" style="fill:#e0e0d1"/>
  <path d="M47 36c0 1.1-.9 2-2 2H19c-1.1 0-2-.9-2-2V14c0-1.1.9-2 2-2h26c1.1 0 2 .9 2 2v22z" style="fill:#4f5d73"/>
  <path d="M17 36v4c0 1.1.9 2 2 2h7s3 0 3 3c0 4.2-.8 6.3-1 6.8 0 0 0 .1-.1.1-.2.5-.3 1-.3 1.6 0 2.4 2 4.4 4.4 4.4 2.4 0 4.4-2 4.4-4.4 0-.6-.1-1.1-.3-1.6 0 0 0-.1-.1-.1-.2-.6-1-2.6-1-6.8 0 0 0-3 3-3h7c1.1 0 2-.9 2-2v-4H17z" class="st2"/>
  <path d="M17 34v4c0 1.1.9 2 2 2h7s3 0 3 3c0 4.2-.8 6.3-1 6.8 0 0 0 .1-.1.1-.2.5-.3 1-.3 1.6 0 2.4 2 4.4 4.4 4.4 2.4 0 4.4-2 4.4-4.4 0-.6-.1-1.1-.3-1.6 0 0 0-.1-.1-.1-.2-.6-1-2.6-1-6.8 0 0 0-3 3-3h7c1.1 0 2-.9 2-2v-4H17z" style="fill:#e0995e"/>
  <path d="M17 31h30v6H17z" class="st2"/>
  <path d="M17 29h30v6H17z" style="fill:#fff"/>
  <path d="M45 14H19c-1.1 0-2 .9-2 2v10h13.5c.8 0 1.5.7 1.5 1.5s.7 1.5 1.5 1.5 1.5-.7 1.5-1.5.7-1.5 1.5-1.5 1.5.7 1.5 1.5v3c0 .8.7 1.5 1.5 1.5s1.5-.7 1.5-1.5v-3c0-.8.7-1.5 1.5-1.5s1.5.7 1.5 1.5v1c0 .8.7 1.5 1.5 1.5s1.5-.7 1.5-1.5V16c0-1.1-.9-2-2-2z" class="st2"/>
  <path d="M47 26.5c0 .8-.7 1.5-1.5 1.5s-1.5-.7-1.5-1.5v-6c0-.8.7-1.5 1.5-1.5s1.5.7 1.5 1.5v6zm-6 2c0 .8-.7 1.5-1.5 1.5s-1.5-.7-1.5-1.5v-6c0-.8.7-1.5 1.5-1.5s1.5.7 1.5 1.5v6zm3-7.5c0 .8-.7 1.5-1.5 1.5v.5c-.8 0-1.5-1.2-1.5-2v4.5c0-.8.7-1.5 1.5-1.5s1.5.7 1.5 1.5V21zm-9 4.5c0 .8-.7 1.5-1.5 1.5s-1.5-.7-1.5-1.5v-6c0-.8.7-1.5 1.5-1.5s1.5.7 1.5 1.5v6zm3-4.5c0 .8-.7 1.5-1.5 1.5v.5c-.8 0-1.5-1.2-1.5-2v4.5c0-.8.7-1.5 1.5-1.5s1.5.7 1.5 1.5V21zm-6 0c0 .8-.7 1.5-1.5 1.5v.5c-.8 0 0-1.2 0-2v2c0-.8-.8 1 0 1s1.5.7 1.5 1.5V21zm15-7c0-1.1-.9-2-2-2H19c-1.1 0-2 .9-2 2v4h30v-4z" class="st5"/>
  <path d="M17 14v10h28c1.1 0 2-.9 2-2v-4l-30-4z" class="st5"/>
</svg>
